<svg width="38" height="34" viewBox="0 0 38 34" fill="none" xmlns="http://www.w3.org/2000/svg">
<path d="M30.6667 10.3335V7.00016H27.3333V3.66683H30.6667V0.333496H34V3.66683H37.3333V7.00016H34V10.3335H30.6667ZM3.99999 33.6668C3.08333 33.6668 2.29833 33.3407 1.64499 32.6885C0.991659 32.0363 0.665548 31.2513 0.666659 30.3335V10.3335C0.666659 9.41683 0.993326 8.63183 1.64666 7.9785C2.29999 7.32516 3.08444 6.99905 3.99999 7.00016H9.24999L12.3333 3.66683H22.3333V7.00016H13.7917L10.75 10.3335H3.99999V30.3335H30.6667V15.3335H34V30.3335C34 31.2502 33.6733 32.0352 33.02 32.6885C32.3667 33.3418 31.5822 33.6679 30.6667 33.6668H3.99999ZM17.3333 27.8335C19.4167 27.8335 21.1878 27.1046 22.6467 25.6468C24.1055 24.1891 24.8344 22.4179 24.8333 20.3335C24.8333 18.2502 24.1039 16.4796 22.645 15.0218C21.1861 13.5641 19.4155 12.8346 17.3333 12.8335C15.25 12.8335 13.4789 13.5629 12.02 15.0218C10.5611 16.4807 9.83222 18.2513 9.83333 20.3335C9.83333 22.4168 10.5628 24.1879 12.0217 25.6468C13.4805 27.1057 15.2511 27.8346 17.3333 27.8335ZM17.3333 24.5002C16.1667 24.5002 15.1805 24.0974 14.375 23.2918C13.5694 22.4863 13.1667 21.5002 13.1667 20.3335C13.1667 19.1668 13.5694 18.1807 14.375 17.3752C15.1805 16.5696 16.1667 16.1668 17.3333 16.1668C18.5 16.1668 19.4861 16.5696 20.2917 17.3752C21.0972 18.1807 21.5 19.1668 21.5 20.3335C21.5 21.5002 21.0972 22.4863 20.2917 23.2918C19.4861 24.0974 18.5 24.5002 17.3333 24.5002Z" fill="#808080"/>
</svg>
