<svg width="18" height="21" viewBox="0 0 18 21" fill="none" xmlns="http://www.w3.org/2000/svg">
<path d="M0 20.3633L1.5 18.8633L3 20.3633L4.5 18.8633L6 20.3633L7.5 18.8633L9 20.3633L10.5 18.8633L12 20.3633L13.5 18.8633L15 20.3633L16.5 18.8633L18 20.3633V0.363281L16.5 1.86328L15 0.363281L13.5 1.86328L12 0.363281L10.5 1.86328L9 0.363281L7.5 1.86328L6 0.363281L4.5 1.86328L3 0.363281L1.5 1.86328L0 0.363281M15 7.36328H3V5.36328H15M15 11.3633H3V9.36328H15M15 15.3633H3V13.3633H15V15.3633Z" fill="white"/>
</svg>
