<svg width="59" height="59" viewBox="0 0 59 59" fill="none" xmlns="http://www.w3.org/2000/svg">
<rect width="59" height="59" rx="29.5" fill="#D3E6F7"/>
<path d="M29.4999 29.4998C30.2333 29.4998 30.8613 29.2385 31.3839 28.7158C31.9057 28.1941 32.1666 27.5665 32.1666 26.8332C32.1666 26.0998 31.9057 25.4718 31.3839 24.9492C30.8613 24.4274 30.2333 24.1665 29.4999 24.1665C28.7666 24.1665 28.139 24.4274 27.6173 24.9492C27.0946 25.4718 26.8333 26.0998 26.8333 26.8332C26.8333 27.5665 27.0946 28.1941 27.6173 28.7158C28.139 29.2385 28.7666 29.4998 29.4999 29.4998ZM29.4999 42.8332C25.9221 39.7887 23.2501 36.9607 21.4839 34.3492C19.7168 31.7385 18.8333 29.3221 18.8333 27.0998C18.8333 23.7665 19.9057 21.1109 22.0506 19.1332C24.1946 17.1554 26.6777 16.1665 29.4999 16.1665C32.3221 16.1665 34.8053 17.1554 36.9493 19.1332C39.0941 21.1109 40.1666 23.7665 40.1666 27.0998C40.1666 29.3221 39.2835 31.7385 37.5173 34.3492C35.7501 36.9607 33.0777 39.7887 29.4999 42.8332Z" fill="#41A3FC"/>
</svg>
