<svg width="59" height="59" viewBox="0 0 59 59" fill="none" xmlns="http://www.w3.org/2000/svg">
<rect width="59" height="59" rx="29.5" fill="#E0FBC8"/>
<path d="M29.5 20.021C30.8537 20.021 32.152 20.5588 33.1092 21.516C34.0664 22.4732 34.6042 23.7715 34.6042 25.1252C34.6042 26.4789 34.0664 27.7771 33.1092 28.7344C32.152 29.6916 30.8537 30.2293 29.5 30.2293C28.1463 30.2293 26.848 29.6916 25.8908 28.7344C24.9336 27.7771 24.3958 26.4789 24.3958 25.1252C24.3958 23.7715 24.9336 22.4732 25.8908 21.516C26.848 20.5588 28.1463 20.021 29.5 20.021ZM19.2917 23.6668C20.1083 23.6668 20.8667 23.8856 21.5229 24.2793C21.3042 26.3647 21.9167 28.4356 23.1708 30.0543C22.4417 31.4543 20.9833 32.4168 19.2917 32.4168C18.1313 32.4168 17.0185 31.9559 16.1981 31.1354C15.3776 30.315 14.9167 29.2022 14.9167 28.0418C14.9167 26.8815 15.3776 25.7687 16.1981 24.9482C17.0185 24.1278 18.1313 23.6668 19.2917 23.6668ZM39.7083 23.6668C40.8687 23.6668 41.9815 24.1278 42.8019 24.9482C43.6224 25.7687 44.0833 26.8815 44.0833 28.0418C44.0833 29.2022 43.6224 30.315 42.8019 31.1354C41.9815 31.9559 40.8687 32.4168 39.7083 32.4168C38.0167 32.4168 36.5583 31.4543 35.8292 30.0543C37.1007 28.4129 37.6908 26.3446 37.4771 24.2793C38.1333 23.8856 38.8917 23.6668 39.7083 23.6668ZM20.0208 38.6147C20.0208 35.596 24.2646 33.146 29.5 33.146C34.7354 33.146 38.9792 35.596 38.9792 38.6147V41.1668H20.0208V38.6147ZM12 41.1668V38.9793C12 36.9522 14.7562 35.246 18.4896 34.7502C17.6292 35.7418 17.1042 37.1127 17.1042 38.6147V41.1668H12ZM47 41.1668H41.8958V38.6147C41.8958 37.1127 41.3708 35.7418 40.5104 34.7502C44.2438 35.246 47 36.9522 47 38.9793V41.1668Z" fill="#86D315"/>
</svg>
